<svg width="3977" height="1024" viewBox="0 0 3977 1024" fill="none" xmlns="http://www.w3.org/2000/svg">
<path fill-rule="evenodd" clip-rule="evenodd" d="M156.019 970C215.957 970 267.693 934.84 291.706 884L732.304 884C723.13 864.588 718 842.892 718 820C718 796.714 723.308 774.666 732.781 755L291.231 755C267.014 704.687 215.555 669.973 155.981 670C73.1602 670 6 737.169 6 820C6 902.831 73.1602 970 156.019 970Z" fill="#F6D200"/>
<path fill-rule="evenodd" clip-rule="evenodd" d="M662 204C662 286.869 594.831 354 512 354C507.822 354 503.683 353.829 499.591 353.494L279.462 734.768C254.467 698.619 214.008 673.987 167.645 670.442L388.111 288.583C371.637 264.501 362 235.374 362 204C362 121.169 429.169 54 512 54C594.869 54 662 121.169 662 204Z" fill="#E7107E"/>
<path fill-rule="evenodd" clip-rule="evenodd" d="M635.895 288.591C611.07 324.882 570.715 349.702 524.41 353.494L744.548 734.783C727.807 758.986 718 788.35 718 820C718 902.831 785.169 970 868 970C950.832 970 1018 902.869 1018 820C1018 737.131 950.832 669.962 868 670C864.083 670 860.2 670.15 856.358 670.445L635.895 288.591Z" fill="#0FA4EA"/>
<path fill-rule="evenodd" clip-rule="evenodd" d="M3378 189C3356.47 189 3338.6 195.881 3324.36 209.642C3310.08 223.404 3303 240.535 3303 261C3303 281.501 3310.12 298.632 3324.36 312.358C3338.6 326.119 3356.5 333 3378 333C3399.5 333 3417.4 326.119 3431.64 312.358C3445.88 298.596 3453 281.501 3453 261C3453 240.535 3445.88 223.404 3431.64 209.642C3417.4 195.881 3399.5 189 3378 189ZM3432 385H3320V828H3432V385ZM3864.99 406.35C3899.66 425.261 3926.98 452.014 3946.98 486.644C3966.98 521.274 3976.96 561.226 3977 606.5C3977 651.774 3966.73 691.726 3946.2 726.356C3925.67 760.986 3897.92 787.739 3863 806.65C3828.08 825.562 3789 835 3745.8 835C3703.14 835 3664.73 825.562 3630.59 806.65C3596.46 787.774 3569.67 760.986 3550.2 726.356C3530.73 691.726 3521 651.774 3521 606.5C3521 561.226 3531.02 521.274 3551.02 486.644C3571.02 452.05 3598.34 425.261 3633.01 406.35C3667.65 387.474 3706.33 378 3749 378C3791.67 378 3830.32 387.438 3864.99 406.35ZM3802.96 722.772C3820.83 712.909 3835.08 698.148 3845.77 678.421C3856.43 658.729 3861.76 634.743 3861.79 606.535C3861.79 564.455 3850.71 532.096 3828.58 509.458C3806.44 486.821 3779.37 475.503 3747.37 475.503C3715.36 475.503 3688.57 486.821 3666.97 509.458C3645.37 532.096 3634.57 564.455 3634.57 606.535C3634.57 648.616 3645.09 680.975 3666.16 703.612C3687.22 726.25 3713.76 737.568 3745.77 737.568C3766.02 737.568 3785.09 732.636 3802.96 722.772ZM3166.8 697C3146.47 697 3129.76 703.279 3116.66 715.765C3103.55 728.287 3097 743.859 3097 762.482C3097 781.141 3103.55 796.713 3116.66 809.235C3129.76 821.757 3146.47 828 3166.8 828C3186.57 828 3202.88 821.757 3215.73 809.235C3228.55 796.713 3235 781.141 3235 762.482C3235 743.859 3228.59 728.287 3215.73 715.765C3202.91 703.243 3186.57 697 3166.8 697ZM2892.99 385.205V436.49C2925.35 397.379 2971.1 378.035 3029 378V498.565H2971.1C2922.05 498.565 2892.99 518.263 2892.99 580.764V828H2781V385.205H2892.99ZM2669.47 693.951V521.601V385.196H2555.2V417.738C2510.61 382.786 2466.41 378 2437.55 378C2399.11 378 2364.29 387.323 2333.16 405.969C2302 424.615 2277.37 451.236 2259.22 485.869C2241.06 520.502 2232 560.169 2232 604.905C2232 650.172 2241.06 690.264 2259.22 725.146C2277.34 760.027 2304.98 788.953 2341.55 809.229C2373.52 826.953 2406.14 835 2451.23 835C2500.48 835 2545.86 817.595 2584.09 784.77C2607.18 815.078 2640.69 827.804 2671.28 827.804H2713V733.547H2707.35C2685.18 733.511 2669.47 720.466 2669.47 693.951ZM2461.01 736.702C2440.82 736.702 2421.81 731.385 2404.01 720.715C2386.21 710.08 2371.85 694.766 2360.98 674.774C2350.07 654.816 2344.64 631.527 2344.64 604.869C2344.64 578.248 2350.07 555.206 2360.98 535.781C2371.85 516.355 2386.1 501.573 2403.62 491.435C2421.14 481.332 2440.29 476.263 2461.01 476.263C2488.08 476.263 2523.51 480.517 2555.24 505.189V521.601V684.699C2555.24 691.115 2555.49 697.248 2555.95 703.168C2529.83 721.884 2502.01 736.702 2461.01 736.702ZM1985.82 276H2098.68H2098.72V385.435H2198V477.311H2098.72V654.465C2098.72 690.434 2113.15 733.747 2164.55 733.747H2197.96V828H2140.66C2046.18 828 1985.82 766.276 1985.82 674.684V477.311H1933V385.435H1985.82V276ZM1821.74 654.465V276H1709V674.684C1709 766.276 1769.29 828 1863.63 828H1899V733.747H1887.5C1836.15 733.747 1821.74 690.434 1821.74 654.465ZM1344.75 276H1463.78H1474.29L1675 828H1557.46L1517.44 718.707H1301.56L1261.54 828H1144L1314.17 360.072L1283.59 276H1344.75ZM1408.03 386.357L1335.87 623.993H1483.2L1411.01 386.357H1408.03Z" fill="#0F172A"/>
</svg>
